<?xml version="1.0" standalone="no"?>
<!DOCTYPE svg PUBLIC "-//W3C//DTD SVG 20010904//EN"
 "http://www.w3.org/TR/2001/REC-SVG-20010904/DTD/svg10.dtd">
<svg version="1.0" xmlns="http://www.w3.org/2000/svg"
 width="1080.000000pt" height="1080.000000pt" viewBox="0 0 1080.000000 1080.000000"
 preserveAspectRatio="xMidYMid meet">
<metadata>
Created by potrace 1.14, written by Peter Selinger 2001-2017
</metadata>
<g transform="translate(0.000000,1080.000000) scale(0.100000,-0.100000)"
fill="#000000" stroke="none">
<path d="M4850 10776 c-137 -39 -295 -130 -470 -271 -33 -27 -334 -328 -386
-385 -193 -217 -416 -545 -536 -790 -105 -212 -189 -477 -222 -695 -7 -49 -19
-138 -22 -170 -5 -47 -5 -338 0 -360 2 -11 7 -45 10 -76 4 -31 9 -67 11 -80
19 -95 21 -86 -27 -94 -108 -17 -394 -103 -464 -140 -16 -8 -34 -15 -40 -15
-6 0 -46 -18 -88 -40 -246 -126 -505 -398 -671 -704 -75 -139 -160 -386 -180
-521 -4 -22 -8 -47 -10 -55 -24 -88 -24 -397 0 -569 18 -135 71 -370 89 -400
4 -6 -13 -15 -36 -22 -101 -27 -276 -97 -446 -180 -101 -49 -185 -89 -188 -89
-11 0 -198 -120 -265 -171 -126 -95 -207 -183 -308 -333 -64 -94 -161 -295
-206 -426 -36 -102 -87 -325 -99 -425 -4 -27 -10 -81 -15 -120 -5 -38 -9 -155
-9 -260 0 -171 3 -221 23 -375 7 -54 32 -179 47 -235 6 -22 11 -44 12 -50 16
-82 103 -310 165 -434 182 -361 412 -687 650 -921 117 -114 161 -153 286 -249
22 -17 45 -34 50 -39 39 -32 216 -144 315 -201 252 -143 541 -269 885 -386
316 -108 705 -206 1185 -300 28 -6 322 -57 450 -79 47 -8 105 -17 130 -20 43
-6 95 -13 150 -21 35 -5 201 -23 285 -31 39 -4 84 -8 100 -10 270 -26 1119
-25 1254 1 10 2 53 6 97 10 43 3 90 8 104 10 14 2 48 6 75 10 76 9 116 15 265
39 52 9 106 18 120 21 14 2 61 12 105 21 44 9 127 27 185 41 58 14 113 26 123
28 45 9 257 73 391 117 957 318 1747 842 2263 1503 83 106 213 298 213 314 0
6 3 11 8 11 4 0 12 10 18 23 6 12 34 66 63 120 45 84 106 219 126 277 1 3 7
19 14 35 17 42 58 210 66 269 3 27 8 52 9 55 11 18 20 206 21 416 0 214 -3
287 -21 430 -7 60 -43 256 -53 293 -6 18 -10 35 -10 37 -2 16 -16 70 -38 145
-92 310 -362 633 -657 786 -28 15 -62 34 -76 44 -39 26 -220 117 -270 135 -93
33 -126 44 -167 55 -24 6 -43 14 -43 18 0 4 9 54 19 112 58 313 -11 620 -202
905 -65 97 -114 154 -227 265 -198 196 -466 359 -685 417 -33 9 -64 19 -68 23
-4 4 5 36 21 71 29 63 67 171 78 220 3 13 7 33 9 44 13 59 16 75 22 130 9 79
9 235 -1 310 -12 96 -61 273 -103 372 -79 183 -241 380 -394 480 -35 24 -69
46 -75 50 -39 29 -215 116 -290 143 -197 73 -427 133 -644 170 -30 6 -66 12
-80 15 -14 3 -38 8 -55 11 -656 118 -1033 334 -1197 684 -45 98 -112 324 -133
452 -3 18 -8 46 -11 61 -3 16 -7 38 -9 50 -13 100 -18 134 -34 237 -25 158
-62 240 -118 261 -33 12 -108 10 -163 -5z m-1190 -4105 c445 -83 818 -370
1025 -789 62 -126 126 -317 140 -420 2 -15 7 -49 12 -77 10 -64 11 -373 0
-445 -16 -107 -57 -260 -97 -362 -80 -202 -175 -344 -334 -503 -209 -208 -416
-318 -721 -381 -26 -5 -179 -17 -225 -17 -176 -2 -385 47 -560 130 -529 251
-866 826 -846 1439 4 122 7 146 32 269 92 463 383 846 791 1043 44 21 92 43
105 47 12 4 25 8 28 9 47 20 161 46 260 61 25 4 46 8 48 10 8 8 285 -4 342
-14z m3950 4 c14 -3 41 -8 60 -11 71 -11 246 -76 341 -126 132 -69 214 -132
334 -252 164 -165 277 -351 356 -585 58 -175 77 -309 74 -521 -3 -185 -4 -193
-37 -335 -131 -573 -559 -1013 -1103 -1137 -118 -27 -364 -33 -480 -12 -177
32 -379 112 -519 206 -348 233 -571 596 -642 1043 -12 81 -11 353 3 442 62
403 256 752 553 993 193 158 457 274 674 296 33 4 63 8 65 10 7 6 291 -4 321
-11z m-3942 -3520 c30 -4 99 -18 155 -31 117 -29 219 -48 366 -69 57 -9 106
-17 110 -19 3 -2 38 -7 76 -10 39 -4 84 -9 100 -11 40 -6 105 -13 190 -20 39
-4 86 -8 105 -10 38 -4 204 -14 335 -21 107 -5 466 -5 590 1 136 6 281 14 335
20 25 2 74 7 110 10 36 4 76 8 90 10 14 2 52 6 85 9 33 4 76 9 95 11 19 3 49
7 65 10 17 2 50 7 75 10 81 12 323 56 390 71 209 49 306 57 410 36 127 -25
200 -77 243 -172 24 -54 33 -224 16 -298 -6 -26 -13 -58 -15 -72 -31 -158
-181 -445 -331 -630 -247 -304 -666 -587 -1058 -713 -279 -90 -495 -126 -780
-129 -95 -1 -334 11 -345 17 -3 2 -30 6 -60 10 -308 37 -713 188 -957 356 -23
16 -44 29 -48 29 -3 0 -11 5 -18 10 -7 6 -59 47 -117 92 -338 262 -573 594
-670 945 -42 155 -44 293 -5 387 58 138 224 199 463 171z"/>
<path d="M3488 5775 c-1 -1 -26 -5 -53 -9 -123 -14 -230 -69 -325 -165 -129
-131 -181 -306 -145 -484 50 -246 256 -422 505 -431 359 -13 636 306 570 655
-41 218 -245 403 -468 425 -31 3 -62 7 -69 9 -6 2 -13 2 -15 0z"/>
<path d="M7390 5759 c-196 -18 -360 -129 -445 -301 -106 -216 -65 -458 103
-625 213 -209 569 -207 782 6 64 63 134 204 146 293 37 264 -100 503 -341 593
-85 32 -154 42 -245 34z"/>
</g>
</svg>
