<?xml version="1.0" encoding="UTF-8"?>
<svg xmlns="http://www.w3.org/2000/svg" version="1.1" viewBox="0 0 24 24">
  <defs>
    <style>
      .cls-1 {
        fill: #fff;
      }
    </style>
  </defs>
  <!-- Generator: Adobe Illustrator 28.6.0, SVG Export Plug-In . SVG Version: 1.2.0 Build 709)  -->
  <g>
    <g id="svg5">
      <path class="cls-1" d="M12,11c-.9-1.8-3.4-5-5.7-6.7-2.2-1.5-3-1.3-3.6-1-.6.3-.7,1.3-.7,1.8s.3,4.7.5,5.4c.7,2.3,3.1,3.1,5.3,2.8.1,0,.2,0,.3,0-.1,0-.2,0-.3,0-3.3.5-6.2,1.7-2.4,5.9,4.2,4.3,5.7-.9,6.5-3.6.8,2.7,1.7,7.7,6.4,3.6,3.6-3.6,1-5.4-2.3-5.9-.1,0-.2,0-.3,0,.1,0,.2,0,.3,0,2.2.2,4.6-.5,5.3-2.8.2-.7.5-4.8.5-5.4s-.1-1.5-.7-1.8c-.6-.2-1.4-.5-3.6,1-2.3,1.6-4.8,4.9-5.7,6.7h0Z"/>
    </g>
  </g>
</svg>