<?xml version="1.0" encoding="utf-8"?>
<!-- Generator: Adobe Illustrator 26.3.1, SVG Export Plug-In . SVG Version: 6.00 Build 0)  -->
<svg version="1.1" id="svg5" xmlns="http://www.w3.org/2000/svg" xmlns:xlink="http://www.w3.org/1999/xlink" x="0px" y="0px"
	 viewBox="0 0 24 24" style="enable-background:new 0 0 24 24;" xml:space="preserve">
<style type="text/css">
	.st0{fill:#FFFFFF;}
</style>
<path class="st0" d="M23.9,9.6c-0.7-3.7-4.5-4.2-4.5-4.2H2.7C2.1,5.3,2,6.1,2,6.1S2,12.8,2,16.9c0.2,2.2,2.4,2.4,2.4,2.4s7.6,0,11,0
	c2.2-0.4,2.5-2.4,2.4-3.4C21.8,16.1,24.6,13.3,23.9,9.6L23.9,9.6z M13.8,12.8c-1.1,1.3-3.7,3.6-3.7,3.6s-0.1,0.1-0.3,0
	c-0.1-0.1-0.1-0.1-0.1-0.1c-0.4-0.4-3.1-2.8-3.7-3.6c-0.6-0.9-1-2.5-0.1-3.4c0.9-0.9,2.8-1,4,0.4c0,0,1.4-1.6,3.2-0.9
	C14.8,9.6,14.8,11.6,13.8,12.8L13.8,12.8z M19.4,13.2c-0.9,0.1-1.5,0-1.5,0V8h1.6c0,0,1.8,0.5,1.8,2.4
	C21.3,12.2,20.4,12.9,19.4,13.2L19.4,13.2z"/>
</svg>
