<svg id="svg5" xmlns="http://www.w3.org/2000/svg" viewBox="0 0 24 24"><defs><style>.cls-1{fill:#fff;}</style></defs><path class="cls-1" d="M11.17,2a1.6,1.6,0,0,0-.79.32A6.93,6.93,0,0,0,8.21,5.1,4.08,4.08,0,0,0,8,7.43a4.9,4.9,0,0,0-1.13.35,3.32,3.32,0,0,0-1.69,2.67A4.3,4.3,0,0,0,5.38,12a5,5,0,0,0-1.07.44,3.05,3.05,0,0,0-1,.69A3.33,3.33,0,0,0,2.6,14.5a4.68,4.68,0,0,0,.34,3.33,6.51,6.51,0,0,0,1.13,1.6c1.44,1.48,3.92,2,5.88,2.36a13.07,13.07,0,0,0,7.12-.66c3.35-1.39,4.24-3.63,4.38-4.24a5.64,5.64,0,0,0-.22-3,2.6,2.6,0,0,0-1.17-1.23,3.38,3.38,0,0,0-1-.44,2.32,2.32,0,0,0-.62-2.26A3,3,0,0,0,16.87,9h0a2.43,2.43,0,0,0,.22-1.68A2.16,2.16,0,0,0,16,5.86a5.48,5.48,0,0,0-1.82-.58,3.63,3.63,0,0,1-2.2-1,6.37,6.37,0,0,1-.58-2.07.26.26,0,0,0-.26-.2m4.64,7.61H16a2.71,2.71,0,0,1,2.28,3.07,2.71,2.71,0,0,1-2.9,2.49h0a2.72,2.72,0,0,1-2.28-3.07,2.72,2.72,0,0,1,2.71-2.5m-7.38,0A2.72,2.72,0,0,1,11,12.21a2.7,2.7,0,0,1-2.38,3h0A2.71,2.71,0,0,1,5.77,12.6h0a2.71,2.71,0,0,1,2.39-3h.27m0,1.7H8.34a1,1,0,0,0-.89,1.13,1,1,0,0,0,1.13.87,1,1,0,0,0,.9-1.13,1,1,0,0,0-1-.88m7.3,0a1,1,0,0,0-1,.95,1,1,0,1,0,1.09-.95h-.11M8.52,16.15a3.18,3.18,0,0,1,.79.13,15.1,15.1,0,0,0,2.69.25,14.85,14.85,0,0,0,2.67-.25c.41-.08.88-.25,1.25,0s.13,1.47-.61,2.25a4.66,4.66,0,0,1-6.62,0C8,17.75,7.6,16.6,8.07,16.28A.81.81,0,0,1,8.52,16.15Z"/></svg>