<?xml version="1.0" encoding="utf-8"?>
<!-- Generator: Adobe Illustrator 26.3.1, SVG Export Plug-In . SVG Version: 6.00 Build 0)  -->
<svg version="1.1" id="svg5" xmlns:svg="http://www.w3.org/2000/svg"
	 xmlns="http://www.w3.org/2000/svg" xmlns:xlink="http://www.w3.org/1999/xlink" x="0px" y="0px" viewBox="0 0 24 24"
	 style="enable-background:new 0 0 24 24;" xml:space="preserve">
<style type="text/css">
	.st0{fill:#FFFFFF;}
</style>
<path class="st0" d="M20.2,6.5l0.7,14c0,0,0,0.1,0,0.1c0,0.1-0.1,0.1-0.1,0.1l-3.4,2.2c0,0-0.1,0-0.1,0h-0.1l-14-2.1
	c0,0-0.1,0-0.1-0.1c0,0,0-0.1,0-0.1c0-0.3,0.1-1,0.1-2.2c0.1-1.2,0.1-2.8,0.3-4.9c0.1-2,0.2-3.6,0.3-4.9c0.1-1.3,0.1-2.1,0.1-2.4
	c0,0,0-0.1,0.1-0.1c0,0,0.1-0.1,0.1-0.1c0.3,0,0.7,0,1.5,0c0.8,0,1.7,0,2.9,0C8.5,4.9,8.7,3.8,9,2.8c0.3-1,0.9-1.6,1.7-1.7
	c0.2,0,0.3,0,0.5,0c0.2,0,0.3,0.1,0.5,0.2c0.1-0.1,0.3-0.2,0.5-0.3C12.4,1.1,12.6,1,12.8,1c0.3,0,0.6,0.1,0.8,0.2
	c0.3,0.1,0.5,0.4,0.7,0.7c0.4,0.5,0.7,1.2,1,2.1c0.2,0.8,0.4,1.5,0.5,2.1h1.6h0.9h0.1l0,0L20,6.4C20.1,6.4,20.1,6.4,20.2,6.5
	C20.2,6.4,20.2,6.5,20.2,6.5L20.2,6.5z M11,1.7c-0.5,0-0.9,0.4-1.1,1.2C9.5,3.6,9.4,4.6,9.3,6h0.5h0.5c0-0.6,0.1-1.3,0.3-2.1
	s0.4-1.5,0.9-2.1l-0.2-0.1C11.1,1.6,11,1.6,11,1.7z M11.9,2.1c-0.3,0.4-0.6,1-0.7,1.8c-0.1,0.7-0.3,1.4-0.3,2h0.4h1.1h1.1
	c-0.1-0.7-0.3-1.4-0.6-2.1C12.7,3.1,12.3,2.5,11.9,2.1L11.9,2.1z M12.9,1.6c-0.1,0-0.2,0-0.2,0c-0.1,0-0.2,0.1-0.2,0.1
	c0.4,0.5,0.8,1.1,1.1,1.9C13.8,4.4,14,5.2,14.2,6h0.5h0.5c-0.1-0.5-0.2-1.2-0.5-2.1c-0.2-0.8-0.5-1.5-1-1.9
	c-0.1-0.1-0.3-0.2-0.4-0.3C13.2,1.6,13,1.6,12.9,1.6L12.9,1.6z"/>
</svg>
