<?xml version="1.0" encoding="utf-8"?>
<!-- Generator: Adobe Illustrator 26.3.1, SVG Export Plug-In . SVG Version: 6.00 Build 0)  -->
<svg version="1.1" id="Layer_1" xmlns="http://www.w3.org/2000/svg" xmlns:xlink="http://www.w3.org/1999/xlink" x="0px" y="0px"
	 viewBox="0 0 24 24" style="enable-background:new 0 0 24 24;" xml:space="preserve">
<style type="text/css">
	.st0{fill:#FFFFFF;}
</style>
<path class="st0" d="M17.1,11.1C17,11.1,17,11,16.9,11c-0.2-2.9-1.8-4.5-4.5-4.5c-1.6,0-3,0.7-3.8,1.9l0,0.2l1.7,1.1l0.1-0.1
	c0.6-0.9,1.5-1,2.1-1c0.8,0,1.4,0.2,1.8,0.7c0.3,0.3,0.4,0.7,0.5,1.2c-0.7-0.1-1.5-0.1-2.3-0.1C10,10.5,8.3,12,8.4,14.1
	c0.1,1.1,0.6,2,1.5,2.6c0.8,0.5,1.7,0.7,2.8,0.7c1.3-0.1,2.4-0.6,3.1-1.5c0.5-0.7,0.9-1.5,1-2.5c0.5,0.3,0.9,0.8,1.1,1.3
	c0.4,1,0.4,2.5-0.9,3.8c-1.1,1.1-2.5,1.6-4.6,1.7c-2.3,0-4.1-0.8-5.2-2.2c-1.1-1.4-1.6-3.3-1.6-5.9c0-2.5,0.6-4.5,1.6-5.9
	c1.1-1.5,2.9-2.3,5.2-2.3s4.1,0.8,5.3,2.2c0.6,0.7,1,1.6,1.3,2.7v0.1l2-0.5V8.3c-0.4-1.3-0.9-2.5-1.7-3.5c-1.6-1.9-3.9-2.9-6.9-3
	c-3,0-5.3,1-6.8,3C4.3,6.6,3.6,9,3.5,12c0,3,0.7,5.4,2.1,7.2c1.5,2,3.8,3,6.8,3c2.6,0,4.5-0.7,6-2.3c2-2,2-4.6,1.3-6.1
	C19.3,12.6,18.4,11.7,17.1,11.1z M12.6,15.3c-0.7,0-1.3-0.1-1.7-0.5c-0.3-0.2-0.4-0.5-0.4-0.8c0-0.7,0.5-1.5,2.2-1.6
	c0.2,0,0.4,0,0.6,0c0.6,0,1.1,0.1,1.6,0.2C14.7,14.9,13.6,15.3,12.6,15.3L12.6,15.3z"/>
</svg>
